<svg width="20" height="20" viewBox="0 0 20 20" fill="none" xmlns="http://www.w3.org/2000/svg">
<path d="M17.875 0.125H1.33203C0.601562 0.125 0 0.769531 0 1.54297V18C0 18.7734 0.601562 19.375 1.33203 19.375H17.875C18.6055 19.375 19.25 18.7734 19.25 18V1.54297C19.25 0.769531 18.6055 0.125 17.875 0.125ZM5.80078 16.625H2.96484V7.47266H5.80078V16.625ZM4.38281 6.18359C3.4375 6.18359 2.70703 5.45312 2.70703 4.55078C2.70703 3.64844 3.4375 2.875 4.38281 2.875C5.28516 2.875 6.01562 3.64844 6.01562 4.55078C6.01562 5.45312 5.28516 6.18359 4.38281 6.18359ZM16.5 16.625H13.6211V12.1562C13.6211 11.125 13.6211 9.75 12.1602 9.75C10.6562 9.75 10.4414 10.9102 10.4414 12.1133V16.625H7.60547V7.47266H10.3125V8.71875H10.3555C10.7422 7.98828 11.6875 7.21484 13.0625 7.21484C15.9414 7.21484 16.5 9.14844 16.5 11.5977V16.625Z" fill="white"/>
</svg>
