<svg width="22" height="19" viewBox="0 0 22 19" fill="none" xmlns="http://www.w3.org/2000/svg">
<path d="M19.7227 5.28125C19.7227 5.49609 19.7227 5.66797 19.7227 5.88281C19.7227 11.8555 15.2109 18.6875 6.91797 18.6875C4.33984 18.6875 1.97656 17.957 0 16.668C0.34375 16.7109 0.6875 16.7539 1.07422 16.7539C3.17969 16.7539 5.11328 16.0234 6.66016 14.8203C4.68359 14.7773 3.00781 13.4883 2.44922 11.6836C2.75 11.7266 3.00781 11.7695 3.30859 11.7695C3.69531 11.7695 4.125 11.6836 4.46875 11.5977C2.40625 11.168 0.859375 9.36328 0.859375 7.17188V7.12891C1.46094 7.47266 2.19141 7.64453 2.92188 7.6875C1.67578 6.87109 0.902344 5.49609 0.902344 3.94922C0.902344 3.08984 1.11719 2.31641 1.50391 1.67188C3.73828 4.37891 7.08984 6.18359 10.8281 6.39844C10.7422 6.05469 10.6992 5.71094 10.6992 5.36719C10.6992 2.875 12.7188 0.855469 15.2109 0.855469C16.5 0.855469 17.6602 1.37109 18.5195 2.27344C19.5078 2.05859 20.4961 1.67188 21.3555 1.15625C21.0117 2.23047 20.3242 3.08984 19.3789 3.64844C20.2812 3.5625 21.1836 3.30469 21.957 2.96094C21.3555 3.86328 20.582 4.63672 19.7227 5.28125Z" fill="white"/>
</svg>
